<svg width="600" height="64" viewBox="0 0 600 64" fill="none" xmlns="http://www.w3.org/2000/svg">
<g clip-path="url(#clip0_2_78)">
<path d="M504 5C504 3.34315 505.343 2 507 2H546C547.657 2 549 3.34315 549 5V31C549 32.6569 547.657 34 546 34H507C505.343 34 504 32.6569 504 31V5Z" fill="white"/>
<path fill-rule="evenodd" clip-rule="evenodd" d="M507 0H546C548.761 0 551 2.23858 551 5V31C551 33.7614 548.761 36 546 36H507C504.239 36 502 33.7614 502 31V5C502 2.23858 504.239 0 507 0ZM507 2C505.343 2 504 3.34315 504 5V31C504 32.6569 505.343 34 507 34H546C547.657 34 549 32.6569 549 31V5C549 3.34315 547.657 2 546 2H507Z" fill="#C9C9C9"/>
<path d="M554 5H46C20.5949 5 0 25.5949 0 51V65H2V51C2 26.6995 21.6995 7 46 7H554C578.301 7 598 26.6995 598 51V65H600V51C600 25.5949 579.405 5 554 5Z" fill="#C9C9C9"/>
<path d="M46 7C21.6995 7 2 26.6995 2 51V65H598V51C598 26.6995 578.301 7 554 7H46Z" fill="white"/>
<path d="M551 36.5C551 41.7467 546.747 46 541.5 46C536.253 46 532 41.7467 532 36.5C532 31.2533 536.253 27 541.5 27C546.747 27 551 31.2533 551 36.5Z" fill="#C4C4C4"/>
<path d="M550 36.5C550 41.1944 546.194 45 541.5 45C536.806 45 533 41.1944 533 36.5C533 31.8056 536.806 28 541.5 28C546.194 28 550 31.8056 550 36.5Z" fill="#5E5E5E"/>
<path d="M547 33C547 34.1046 546.105 35 545 35C543.895 35 543 34.1046 543 33C543 31.8954 543.895 31 545 31C546.105 31 547 31.8954 547 33Z" fill="#E7E7E7"/>
<path d="M543 36C543 36.5523 542.552 37 542 37C541.448 37 541 36.5523 541 36C541 35.4477 541.448 35 542 35C542.552 35 543 35.4477 543 36Z" fill="#E7E7E7"/>
<path d="M523 36.5C523 41.7467 518.747 46 513.5 46C508.253 46 504 41.7467 504 36.5C504 31.2533 508.253 27 513.5 27C518.747 27 523 31.2533 523 36.5Z" fill="#C4C4C4"/>
<path d="M522 36.5C522 41.1944 518.194 45 513.5 45C508.806 45 505 41.1944 505 36.5C505 31.8056 508.806 28 513.5 28C518.194 28 522 31.8056 522 36.5Z" fill="#5E5E5E"/>
<path d="M519 33C519 34.1046 518.105 35 517 35C515.895 35 515 34.1046 515 33C515 31.8954 515.895 31 517 31C518.105 31 519 31.8954 519 33Z" fill="#E7E7E7"/>
<path d="M515 36C515 36.5523 514.552 37 514 37C513.448 37 513 36.5523 513 36C513 35.4477 513.448 35 514 35C514.552 35 515 35.4477 515 36Z" fill="#E7E7E7"/>
<path d="M504 4H549V6H504V4Z" fill="white"/>
<path d="M475 36C475 37.1046 474.105 38 473 38C471.895 38 471 37.1046 471 36C471 34.8954 471.895 34 473 34C474.105 34 475 34.8954 475 36Z" fill="#C4C4C4"/>
<path d="M467 36C467 37.1046 466.105 38 465 38C463.895 38 463 37.1046 463 36C463 34.8954 463.895 34 465 34C466.105 34 467 34.8954 467 36Z" fill="#C4C4C4"/>
<path d="M459 36C459 37.1046 458.105 38 457 38C455.895 38 455 37.1046 455 36C455 34.8954 455.895 34 457 34C458.105 34 459 34.8954 459 36Z" fill="#C4C4C4"/>
</g>
<defs>
<clipPath id="clip0_2_78">
<rect width="600" height="64" fill="white"/>
</clipPath>
</defs>
</svg>
