<svg width="600" height="56" viewBox="0 0 600 56" fill="none" xmlns="http://www.w3.org/2000/svg">
<path d="M2 0V9.99998C2 34.3005 21.6995 54 46 54H554C578.301 54 598 34.3005 598 9.99998V0H2Z" fill="white"/>
<path d="M257 27C257 20.9249 261.925 16 268 16H332C338.075 16 343 20.9249 343 27V27C343 33.0751 338.075 38 332 38H268C261.925 38 257 33.0751 257 27V27Z" fill="white"/>
<path fill-rule="evenodd" clip-rule="evenodd" d="M332 18H268C263.029 18 259 22.0294 259 27C259 31.9706 263.029 36 268 36H332C336.971 36 341 31.9706 341 27C341 22.0294 336.971 18 332 18ZM268 16C261.925 16 257 20.9249 257 27C257 33.0751 261.925 38 268 38H332C338.075 38 343 33.0751 343 27C343 20.9249 338.075 16 332 16H268Z" fill="#E7E7E7"/>
<path d="M0 0V9.99999C0 35.4051 20.5949 56 46 56H554C579.405 56 600 35.4051 600 9.99999V0H598V9.99999C598 34.3005 578.301 54 554 54H46C21.6995 54 2 34.3005 2 9.99999V0H0Z" fill="#C9C9C9"/>
</svg>
